<?xml version="1.0" encoding="UTF-8"?>
<!-- Created with Inkscape (http://www.inkscape.org/) -->
<svg width="300" height="300" version="1.1" viewBox="0 0 79.375 79.375" xml:space="preserve" xmlns="http://www.w3.org/2000/svg"><g display="none"><path d="m8.196 63.201c-6.1248-2.656-7.6769-11.952-4.8051-28.779 1.411-8.2676 2.0858-9.9605 5.0989-12.792 1.3702-1.2878 2.8526-2.9536 3.2941-3.7018 1.4495-2.4563 1.3488-2.4219 7.0894-2.4219 5.7901 0 5.707-0.03229 7.9106 3.0722 1.0504 1.4799 24.298 1.5468 25.308 0.07285 2.0655-3.0163 2.4039-3.1451 8.2652-3.1451 6.0326 0 5.994-0.01707 7.9908 3.5129 0.42005 0.74254 1.5615 1.9174 2.5367 2.6108 2.374 1.6882 2.8656 2.8026 4.688 10.626 6.9954 30.032-7.734 43.488-20.35 18.591-0.83412-1.6461-1.0785-1.8784-1.7554-1.6686-4.0213 1.2466-6.7639 0.82252-9.2514-1.4305-1.915-1.7345-6.8649-1.6067-9.4984 0.24525-2.3189 1.6307-5.7629 2.1352-8.5616 1.2542-0.91118-0.28683-1.0483-0.13359-3.3843 3.7823-5.6596 9.4872-9.681 12.294-14.575 10.171zm23.04-17.898c2.5666-1.2987 3.237-4.5443 1.3614-6.5909-2.7992-3.0545-7.5054-1.2876-7.4615 2.8013 0.03358 3.1213 3.3496 5.1814 6.1001 3.7896zm21.816-0.63107c1.2565-1.1804 1.7596-2.9438 1.2663-4.4385-1.3637-4.1319-7.0943-4.0475-8.3437 0.12289-1.1674 3.8964 4.1029 7.11 7.0775 4.3156zm9.0835-5.3881c2.9135-1.7764 0.4866-6.1941-2.673-4.8656-2.6237 1.1032-1.7074 5.5794 1.1421 5.5794 0.19812 0 0.88704-0.3212 1.5309-0.71379zm-42.502-1.8111c0.34478-0.39958 0.7079-1.4127 0.80696-2.2514 0.18001-1.5248 0.18001-1.5248 1.9359-1.7265 3.8081-0.43731 3.8081-4.2024 0-4.6398-1.7558-0.20163-1.7558-0.20163-1.9359-1.7265-0.46425-3.9305-4.2151-4.1163-4.6613-0.23097-0.20163 1.7558-0.20163 1.7558-1.8718 1.9479-4.0126 0.4616-3.9308 4.6708 0.09083 4.6708 1.4345 0 1.7595 0.4047 1.7595 2.1908 0 2.1274 2.5582 3.2927 3.8758 1.7655zm37.025-4.12c1.9422-1.9422 0.3826-5.1844-2.2855-4.7515-2.455 0.39838-3.367 2.8951-1.7104 4.6825 1.1535 1.2446 2.792 1.2729 3.996 0.06898zm10.724 0.46511c2.4936-1.3281 2.0646-4.2954-0.74413-5.1472-2.6479-0.80298-4.3079 2.4844-2.2791 4.5133 1.1424 1.1424 1.8068 1.2817 3.0232 0.63389zm-21.118-1.9713c0.43168-1.125-0.39757-1.7464-2.4798-1.8584-2.1941-0.11803-3.0429 0.43228-2.6374 1.71 0.3151 0.99281 4.7438 1.1213 5.1172 0.14843zm-7.8679-0.64766c0.2662-1.3948-2.8369-2.2432-4.6519-1.2719-0.68979 0.36917-0.93381 1.4313-0.44185 1.9232 0.62107 0.62108 4.9567 0.06669 5.0937-0.65134zm23.96-3.1118c1.7576-1.3825 1.0052-4.3498-1.2273-4.8401-1.8978-0.41682-3.8837 1.474-3.4332 3.2688 0.53835 2.145 2.9132 2.9456 4.6605 1.5712zm-24.476-0.80815c0.35659-0.26075 0.58797-0.78756 0.51418-1.1707-0.19275-1.0009-4.5186-1.039-5.1281-0.04514-0.84823 1.3833 2.9985 2.397 4.6139 1.2159zm7.9248 0c0.35658-0.26075 0.58797-0.78756 0.51418-1.1707-0.19277-1.0009-4.5187-1.039-5.1281-0.04514-0.84821 1.3833 2.9986 2.397 4.6139 1.2159z" opacity=".98" stroke-width="1.835"/></g><g><path d="m36.73 75.971c-0.46099-0.18287-1.3252-0.80314-1.9204-1.3784-1.0822-1.0459-1.0822-1.0459-7.2084-1.1064-8.0237-0.079248-10.339-0.78875-13.625-4.1753-1.9525-2.0119-5.2358-9.0074-4.5496-9.6936 0.26551-0.26552 3.1642 1.2663 3.1642 1.6722 0 1.4664 3.0766 5.8488 4.9886 7.1058 3.5424 2.3288 15.066 2.9179 16.993 0.86872 3.3966-3.6118 8.8424-2.0049 8.8587 2.6139 0.01025 3.0949-3.6221 5.3142-6.7005 4.0931zm-19.978-11.483c-1.3824-0.62572-2.7549-2.0378-3.0682-3.1568-0.59453-2.123-0.29586-30.004 0.33371-31.155 2.1393-3.9131 8.6808-3.7904 11.318 0.21233 1.5898 2.4132 1.6888 29.342 0.11563 31.449-2.0651 2.766-5.8778 3.928-8.6989 2.6511zm41.603 0.14705c-2.3367-0.56191-4.2934-2.3168-4.8609-4.3596-0.44377-1.5975-0.42572-26.215 0.02067-28.151 1.3455-5.8367 9.6736-6.8187 12.162-1.4341 0.89555 1.9378 1.1429 27.546 0.28936 29.953-1.0075 2.8412-4.5877 4.7189-7.6112 3.9919zm9.6654-18.463c-0.0509-14.041-0.14654-13.468 2.0062-12.042 8.053 5.3341 9.6137 14.269 3.6199 20.725-1.3741 1.4799-4.7794 4.0576-5.3604 4.0576-0.12075 0-0.24025-5.7331-0.26568-12.74zm-59.789 10.596c-2.9638-2.1075-4.1961-3.7067-5.6579-7.3426-1.2838-3.1934 0.10179-8.6459 2.9947-11.784 1.7594-1.9087 5.3025-4.6104 5.7133-4.3565 0.50512 0.31217 0.39 25.295-0.11648 25.282-0.2305-0.0051-1.5506-0.81526-2.9336-1.7986zm-1.0009-23.588c0.038941-4.6089 2.8678-10.743 4.6788-10.145 1.5942 0.52611 1.5831 0.45257 0.51299 3.4193-0.46102 1.278-0.8405 2.7295-0.84334 3.2257-0.0068 1.1788-0.22577 1.4696-1.8945 2.5147-0.76819 0.48109-1.4937 1.0317-1.6123 1.2236-0.3401 0.55031-0.84706 0.40702-0.84161-0.23786zm63.073-0.69834c-1.8846-1.3133-2.1017-1.8097-3.6259-8.2881-0.17079-0.72594 0.96433-1.4908 2.2124-1.4908 0.96872 0 2.6353 4.6337 3.5271 9.8067 0.26587 1.5421 0.13663 1.5404-2.1136-0.02784zm-57.379-10.495c-2.6964-0.73598-3.3528-2.97-1.7105-5.8218 9.4469-16.404 43.53-17.72 55.806-2.1534 2.8574 3.6233 3.0056 6.7802 0.37002 7.8814-1.8356 0.76694-2.0574 0.64655-5.9305-3.2184-14.042-14.013-31.431-13.529-44.704 1.2423-1.2111 1.3478-2.3045 2.437-2.4298 2.4203-0.12536-0.01708-0.75588-0.17436-1.4013-0.35052z" stroke-width="1.7079"/></g><g display="none"><path d="m7.0538 63.075-0.70414-0.16861-0.98483-0.47077-1.3004-1.0348-0.44044-0.61546-0.44042-0.61547-0.29553-0.65123-0.29555-0.65122-0.16441-0.70776-0.16441-0.70776v-35.529l0.32882-1.4155 0.29555-0.65122 0.29553-0.65123 0.44042-0.61546 0.44044-0.61547 0.6502-0.51742 0.6502-0.51741 0.48781-0.23319 0.48781-0.23318 1.5656-0.36064h63.563l1.5656 0.36064 0.97564 0.46637 1.3004 1.0348 0.44044 0.61547 0.4404 0.61546 0.29557 0.65123 0.29555 0.65122 0.16441 0.70776 0.16441 0.70776v35.529l-0.16441 0.70776-0.16441 0.70776-0.29555 0.65122-0.29557 0.65123-0.4404 0.61547-0.44044 0.61546-1.3004 1.0348-0.97564 0.46637-1.5656 0.36064-27.104-0.0096-36.607-0.0096zm54.718-11.899 0.28899-0.24062 0.43155-0.64459v-4.4007l-0.21577-0.3223-0.21578-0.32229-0.57801-0.48125h-34.087l-0.289 0.24062-0.28902 0.24063-0.21577 0.32185-0.21577 0.32185-0.03361 1.8838-0.03361 1.8838 0.06409 0.38042 0.06409 0.38043 0.27843 0.36903 0.27845 0.36903 0.31915 0.15558 0.31915 0.1556 33.84-0.0503zm-43.419-10.352 0.39408-0.43933 0.05852-4.4899-0.21142-0.38036-0.2114-0.38037-0.3411-0.23191-0.34108-0.23191h-6.8025l-0.68216 0.46382-0.21142 0.38037-0.21141 0.38036 0.029259 2.2393 0.029259 2.2393 0.62792 0.73925 0.20931 0.0995 0.20932 0.09948 7.0609-0.0482zm11.797 0.26703 0.33465-0.23066 0.18276-0.38206 0.18275-0.38206-0.03431-2.245-0.03413-2.245-0.39408-0.43932-0.39406-0.43932-7.0708-0.06707-0.36137 0.26926-0.36138 0.26926-0.36595 0.81231v3.9681l0.36595 0.81231 0.71121 0.52984h6.9039zm12.06 0.0017 0.33504-0.22781 0.16214-0.3495 0.16197-0.34949-3.83e-4 -2.1941-4.01e-4 -2.1941-0.39312-0.71892-0.7366-0.3898-6.6662 3.66e-4 -0.73259 0.40811-0.24083 0.52519-0.24085 0.52519 0.03152 2.0479 0.03152 2.0479 0.18883 0.32098 0.18884 0.32097 0.66888 0.45482h6.9072zm12.035 4.14e-4 0.33443-0.22741 0.18886-0.32097 0.18881-0.32098 0.03152-2.0479 0.03152-2.0479-0.24083-0.52519-0.24085-0.52519-0.73256-0.40811-6.6663-3.66e-4 -0.73658 0.3898-0.19658 0.35946-0.19654 0.35947-4.01e-4 2.1941-4e-4 2.1941 0.16197 0.34949 0.16214 0.3495 0.33505 0.22781 0.33505 0.22782h6.9072zm12.078-0.03664 0.3556-0.26492 0.18299-0.40615 0.18297-0.40616v-3.9681l-0.18297-0.40615-0.18299-0.40616-0.36137-0.26925-0.36137-0.26926-7.0708 0.06706-0.39408 0.43933-0.39408 0.43932-0.03239 2.2812-0.03239 2.2812 0.40085 0.70599 0.60594 0.44547 6.9285 0.001628zm-51.398-9.9764 0.36421-0.20406 0.23754-0.39656 0.23757-0.39656v-4.2953l-0.16214-0.34948-0.16214-0.34949-0.33505-0.22782-0.33504-0.22782h-5.442l-0.67009 0.45563-0.16214 0.34949-0.16197 0.34949v4.4286l0.56522 0.7491 0.6383 0.31004 5.0234 8e-3zm10.57 0 0.36421-0.20406 0.47511-0.79312v-4.19l-0.17477-0.41072-0.17475-0.41072-0.32234-0.2192-0.32236-0.2192-5.5917-8.8e-4 -0.73477 0.71945-0.10659 0.42806-0.10659 0.42805-8.02e-4 3.6268 0.23547 0.5121 0.23548 0.51211 0.36466 0.21287 0.36464 0.21287 5.1313-3.59e-4zm10.532 0.01498 0.35801-0.18946 0.23341-0.3649 0.23341-0.36492 0.03414-1.984 0.03413-1.984-0.1139-0.42683-0.11373-0.42681-0.73728-0.7219h-5.6368l-0.36863 0.36096-0.36863 0.36095-0.1139 0.42683-0.1139 0.42683 0.03414 1.984 0.03414 1.984 0.46428 0.72585 0.68691 0.37756 5.0964 0.0048zm10.612-0.02344 0.36466-0.21287 0.23547-0.5121 0.23548-0.51211-4.01e-4 -1.8134-4e-4 -1.8134-0.10659-0.42805-0.10659-0.42806-0.36739-0.35973-0.36741-0.35973-5.5917 8.69e-4 -0.32234 0.2192-0.32234 0.2192-0.17475 0.41072-0.17477 0.41072v4.19l0.47511 0.79313 0.7284 0.40811 5.1313 3.66e-4zm10.394 0.05364 0.34165-0.15918 0.28293-0.37495 0.28291-0.37496v-4.4286l-0.16197-0.34949-0.16214-0.34949-0.67009-0.45564h-5.442l-0.67009 0.45564-0.16197 0.34949-0.16214 0.34949v4.2953l0.47511 0.79313 0.7284 0.40811 4.9778 3.67e-4zm10.638-0.04527 0.36419-0.20406 0.47511-0.79313v-4.2952l-0.16214-0.3495-0.16197-0.34949-0.33505-0.22782-0.33504-0.22782h-5.442l-0.33505 0.22782-0.33505 0.22782-0.16197 0.34949-0.16214 0.3495v4.4286l0.28261 0.37455 0.28263 0.37455 0.31915 0.15502 0.31913 0.15502 5.0234 8e-3z" display="inline" stroke-width=".4177"/><path d="m35.053 74.447c-11.291-3.0365-15.47-11.309-15.866-31.41-0.23491-11.905-0.35148-11.514 2.8851-9.677 13.738 7.7952 20.85 7.8949 34.49 0.48348 1.8264-0.99235 3.3723-1.8043 3.4354-1.8043 0.98912 0 0.22392 20.748-0.94095 25.514-3.0871 12.631-13.252 19.785-24.003 16.893zm1.7489-39.06c-5.2229-0.9439-15.957-6.057-17.444-8.3097-1.1556-1.75 0.16426-13.169 1.9386-16.773 2.7416-5.569 4.5589-6.1445 18.93-5.9947 14.794 0.15425 16.51 0.94076 19.267 8.8275 1.3556 3.8784 0.78541 15.196-0.76563 15.196-0.14293 0-1.7433 0.85807-3.5562 1.9068-7.8968 4.5681-13.26 6.0709-18.37 5.1474zm5.1483-7.0542c2.0289-3.9996 0.21581-18.717-2.3059-18.717-2.6689 0-4.2334 15.325-1.924 18.847 0.91599 1.3968 3.4956 1.3175 4.2299-0.13009z" stroke-width="1.8881"/></g></svg>
